<?xml version="1.0" encoding="UTF-8"?>
<svg id="Icon" xmlns="http://www.w3.org/2000/svg" viewBox="0 0 4000 4000">
  <g>
    <circle cx="2063.81" cy="2000" r="1090.67" fill="#ce7b0d"/>
    <path d="M2398.12,1011.7l-1450.24,1450.24c-65.67-140.26-102.37-296.82-102.37-461.94,0-602.36,488.3-1090.66,1090.67-1090.66,165.12,0,321.68,36.7,461.94,102.37Z" fill="#f8db61"/>
    <path d="M2546.24,1095.77l-1514.29,1514.29c-12.07-17.85-23.63-36.09-34.63-54.67l1494.25-1494.25c18.59,11.01,36.82,22.56,54.67,34.63Z" fill="#f8db61"/>
    <path d="M2868.74,1434.09l-1498.46,1498.46c-75.03-45.62-144.09-100.04-205.8-161.83l1542.43-1542.43c61.79,61.7,116.21,130.77,161.83,205.8Z" fill="#f8db61"/>
    <path d="M3026.85,2000c0,602.36-488.3,1090.66-1090.66,1090.66-169.62,0-330.18-38.72-473.36-107.79l1456.24-1456.24c69.07,143.18,107.79,303.74,107.79,473.36Z" fill="#f8db61"/>
    <path d="M1205.1,2347.6c8.84,20.6,18.44,40.78,28.77,60.53l-51.09,51.09c-11.38-18.63-22.09-37.71-32.09-57.22l54.41-54.41Z" fill="#ce7b0d"/>
    <path d="M1552.29,2750.54l-29.17,29.17c-78.12-41.48-149.27-94.35-211.23-156.4l41.31-41.31c57.53,65.5,124.64,122.4,199.09,168.53Z" fill="#ce7b0d"/>
    <path d="M1557,2753.43c3.05,1.86,6.11,3.7,9.19,5.53-3.07-1.81-6.14-3.66-9.19-5.53Z" fill="#d89a0f"/>
    <path d="M1976.18,2881.3c-13.25.6-26.58.89-39.99.89-110.92,0-217.06-20.48-314.84-57.84l23.76-23.76c101.39,47.07,213.23,75.45,331.06,80.71Z" fill="#ce7b0d"/>
    <path d="M1167.63,2242.2l-60.39,60.39c-34.45-94.37-53.25-196.28-53.25-302.59,0-487.23,394.97-882.2,882.2-882.2,13.41,0,26.74.29,39.99.89-468.68,20.91-842.2,407.48-842.2,881.3,0,83.99,11.73,165.25,33.66,242.2Z" fill="#ce7b0d"/>
    <path d="M2238.76,1171.07l-1071.13,1071.13c-21.92-76.95-33.66-158.21-33.66-242.2,0-473.82,373.53-860.39,842.2-881.3,91.89,4.1,180.12,22.26,262.58,52.37Z" fill="#f5bf37"/>
    <path d="M2395.4,1246.61l-1161.52,1161.52c-10.33-19.75-19.93-39.94-28.77-60.53l1133.08-1133.08c19.5,10,38.59,20.71,57.22,32.09Z" fill="#f5bf37"/>
    <path d="M2715.9,1586.93l-1163.61,1163.61c-74.46-46.13-141.56-103.03-199.09-168.53l1206.3-1206.3c62.05,61.95,114.92,133.11,156.4,211.23Z" fill="#f5bf37"/>
    <path d="M2818.38,2000c0,473.82-373.53,860.39-842.2,881.3-117.84-5.26-229.68-33.63-331.06-80.71l1115.43-1115.43c37.36,97.78,57.84,203.91,57.84,314.84Z" fill="#f5bf37"/>
    <path d="M1205.1,2347.6l-54.41,54.41c-16.44-32.06-30.97-65.25-43.45-99.42l60.39-60.39c10.3,36.14,22.84,71.32,37.48,105.4Z" fill="#ce7b0d"/>
    <path d="M1107.24,2302.59c12.48,34.17,27.02,67.36,43.45,99.42l-153.38,153.38c-17.93-30.24-34.43-61.42-49.43-93.44l159.35-159.35Z" fill="#ffe783"/>
    <path d="M2338.18,1214.52l-1133.08,1133.08c-.84-1.96-1.67-3.91-2.5-5.88-1.95-4.63-3.85-9.27-5.71-13.93-.61-1.49-1.2-2.99-1.79-4.48-4.98-12.62-9.67-25.38-14.06-38.29-.46-1.33-.92-2.65-1.36-3.99-.16-.46-.32-.93-.46-1.39-.87-2.6-1.73-5.2-2.57-7.81-.73-2.22-1.44-4.45-2.14-6.69-.48-1.53-.96-3.06-1.43-4.6-1.88-6.08-3.7-12.2-5.45-18.33l1071.13-1071.13c34.18,12.47,67.36,27,99.42,43.45Z" fill="#ffcb57"/>
    <path d="M2491.57,1061.13l-153.39,153.39c-32.06-16.45-65.24-30.98-99.42-43.45l159.36-159.36c32.02,15,63.21,31.5,93.44,49.43Z" fill="#ffe783"/>
    <path d="M2559.5,1375.71l-1206.3,1206.3c-46.36-52.76-86.52-111.09-119.32-173.88l1161.52-1161.52c59.76,36.49,114.83,79.89,164.1,129.1Z" fill="#ffcb57"/>
    <path d="M1353.2,2582.01l-41.31,41.31c-49.21-49.27-92.61-104.35-129.11-164.09l51.09-51.09c1.01,1.96,2.04,3.91,3.09,5.87.86,1.63,1.74,3.26,2.62,4.89.49.92.99,1.82,1.49,2.74.64,1.2,1.29,2.39,1.96,3.59.23.42.46.83.69,1.25.92,1.66,1.84,3.33,2.78,4.99,1.07,1.93,2.17,3.85,3.27,5.77,1.09,1.92,2.2,3.83,3.3,5.74,1.1,1.92,2.22,3.82,3.36,5.71,1.01,1.73,2.04,3.45,3.08,5.17.15.26.31.52.45.76.86,1.45,1.75,2.9,2.63,4.35.48.79.97,1.58,1.45,2.37.8,1.32,1.61,2.62,2.42,3.91.28.45.56.9.85,1.36.89,1.45,1.8,2.9,2.73,4.35.27.43.55.86.82,1.29.97,1.54,1.95,3.06,2.94,4.59,2.15,3.36,4.33,6.69,6.54,10.01,1.45,2.19,2.9,4.37,4.38,6.54,1.16,1.74,2.34,3.46,3.54,5.19.11.18.23.35.35.52,1.12,1.64,2.25,3.27,3.39,4.9.18.25.35.49.52.74,1.12,1.6,2.23,3.19,3.36,4.77,1.12,1.58,2.23,3.15,3.36,4.7.81,1.14,1.63,2.27,2.46,3.4,1.95,2.7,3.94,5.41,5.94,8.09,1,1.35,2,2.69,3.02,4.04,1.64,2.18,3.28,4.35,4.95,6.5,1.03,1.37,2.08,2.74,3.15,4.09.65.83,1.31,1.67,1.96,2.5.97,1.25,1.95,2.49,2.93,3.74,4.1,5.19,8.26,10.32,12.47,15.41,2.79,3.39,5.61,6.76,8.47,10.09,1.41,1.67,2.84,3.34,4.29,4.99,1.42,1.66,2.86,3.33,4.33,4.97Z" fill="#ce7b0d"/>
    <path d="M1307.64,2525.67c-2-2.68-3.99-5.39-5.94-8.09,1.96,2.7,3.94,5.41,5.94,8.09Z" fill="#d89a0f"/>
    <path d="M1182.78,2459.23c36.5,59.74,79.9,114.82,129.11,164.09l-147.41,147.41c-49.08-49.14-93.5-102.94-132.53-160.67l150.83-150.83Z" fill="#ffe783"/>
    <path d="M1336.11,2561.96c2.8,3.39,5.62,6.75,8.47,10.09-2.86-3.34-5.68-6.7-8.47-10.09Z" fill="#d89a0f"/>
    <path d="M2706.91,1228.3l-147.41,147.41c-49.27-49.21-104.35-92.61-164.1-129.1l150.84-150.84c57.73,39.03,111.53,83.44,160.67,132.53Z" fill="#ffe783"/>
    <path d="M2760.54,1685.16l-1115.43,1115.43c-32.02-14.87-63.01-31.6-92.82-50.05l1163.61-1163.61c16.81,31.65,31.73,64.44,44.64,98.23Z" fill="#ffcb57"/>
    <path d="M1645.11,2800.59l-23.76,23.76c-33.79-12.91-66.59-27.84-98.23-44.64l29.17-29.17c1.57.97,3.15,1.94,4.71,2.89,3.05,1.86,6.11,3.72,9.19,5.53.19.13.38.23.57.35,1.29.77,2.6,1.54,3.9,2.29,3.3,1.94,6.62,3.85,9.95,5.75,3.71,2.12,7.45,4.21,11.21,6.26.18.09.35.2.53.28,1.83,1.02,3.68,2.02,5.53,3.01,1.94,1.05,3.87,2.09,5.82,3.11.33.17.65.35.99.53,3.56,1.88,7.12,3.74,10.71,5.57,1.96,1,3.93,2,5.89,2.98,3.63,1.82,7.27,3.62,10.92,5.38,2.3,1.13,4.62,2.23,6.92,3.33,1.99.94,3.98,1.87,5.98,2.8Z" fill="#ce7b0d"/>
    <path d="M1591.82,2773.61c-3.76-2.05-7.49-4.15-11.21-6.26,3.71,2.12,7.45,4.2,11.21,6.26Z" fill="#d89a0f"/>
    <path d="M1523.12,2779.71c31.65,16.81,64.44,31.73,98.23,44.64l-158.52,158.52c-31.73-15.31-62.62-32.12-92.55-50.33l152.84-152.84Z" fill="#ffe783"/>
    <path d="M1621.29,2789.09c3.63,1.82,7.27,3.61,10.92,5.38-3.65-1.76-7.29-3.56-10.92-5.38Z" fill="#d89a0f"/>
    <path d="M2919.06,1526.64l-158.52,158.52c-12.91-33.79-27.84-66.59-44.64-98.23l152.84-152.84c18.21,29.93,35.01,60.82,50.33,92.55Z" fill="#ffe783"/>
    <g>
      <g>
        <path d="M1685,2456.32v-920h128.47v920h-128.47ZM1760.94,2456.32v-120h249.33c68.34,0,116.75-13.06,145.23-39.2,28.47-26.12,42.72-60.48,42.72-103.06v-1.89c0-45.52-12.14-81.88-36.39-109.06-24.27-27.19-64.23-40.78-119.92-40.78h-280.97v-116h280.97c47.67,0,83.64-11.27,107.89-33.83,24.25-22.55,36.39-55.53,36.39-98.95,0-45.94-13.5-80.3-40.5-103.06s-67.5-34.16-121.5-34.16h-263.25v-120h286.67c90.69,0,158.19,22.58,202.48,67.7,44.3,45.14,66.45,105.67,66.45,181.61,0,45.98-13.5,88.06-40.5,126.23-27,38.19-69.41,62.55-127.19,73.08,56.94,8.44,101.12,33.55,132.56,75.3,31.44,41.77,47.16,89.64,47.16,143.62v1.89c0,75.09-24.27,135.62-72.78,181.59-48.52,45.98-114.33,68.97-197.44,68.97h-297.42Z" fill="#d89a0f"/>
        <rect x="1899.77" y="1375.71" width="125.68" height="207.63" fill="#d89a0f"/>
        <rect x="1899.77" y="2408.85" width="125.68" height="207.63" fill="#d89a0f"/>
      </g>
      <g>
        <path d="M1623.77,2456.56v-920h128.47v920h-128.47ZM1699.71,2456.56v-120h249.33c68.34,0,116.75-13.06,145.23-39.2,28.47-26.12,42.72-60.48,42.72-103.06v-1.89c0-45.52-12.14-81.88-36.39-109.06-24.27-27.19-64.23-40.78-119.92-40.78h-280.97v-116h280.97c47.67,0,83.64-11.27,107.89-33.83,24.25-22.55,36.39-55.53,36.39-98.95,0-45.94-13.5-80.3-40.5-103.06s-67.5-34.16-121.5-34.16h-263.25v-120h286.67c90.69,0,158.19,22.58,202.48,67.7,44.3,45.14,66.45,105.67,66.45,181.61,0,45.98-13.5,88.06-40.5,126.23-27,38.19-69.41,62.55-127.19,73.08,56.94,8.44,101.12,33.55,132.56,75.3,31.44,41.77,47.16,89.64,47.16,143.62v1.89c0,75.09-24.27,135.62-72.78,181.59-48.52,45.98-114.33,68.97-197.44,68.97h-297.42Z" fill="#ffe783"/>
        <rect x="1838.54" y="1375.94" width="125.68" height="207.63" fill="#ffe783"/>
        <rect x="1838.54" y="2409.08" width="125.68" height="207.63" fill="#ffe783"/>
      </g>
    </g>
  </g>
  <g>
    <g>
      <path d="M755.31,2034.37c-127.78,0-255.56,0-383.34,0,0-170.65,20.12-327.89,57.21-471.71,23.27-89.66,55.88-146.77,89.19-175.38,33.57-28.58,62.77-35.29,86.64-23.81,17.48,8.42,28.8,25.87,34.94,51.92,6.17,26.12,4.49,59.34-3.46,101.31,43.08-88.25,91.28-114.82,133.77-93.42,25.86,12.89,42.27,38.26,51.48,75.11,9.48,37.32-4.01,98.36-27.87,196.11-25.05,104.28-38.57,217.57-38.57,339.87ZM535.39,1786.85c5.46-39.72,12.22-78.48,20.24-116.28,6.04-28.42,7.56-48.89,3.74-62.36-3.81-13.44-9.39-21.39-17.01-23.75-20.44-6.38-38.74,17.4-50.88,74.47-7.97,38.1-14.74,77.12-20.22,117.08,21.38,3.61,42.75,7.23,64.13,10.84ZM684.85,1812.11c5.15-37.52,11.61-74.08,19.31-109.69,5.74-26.51,7.18-46.41,3.58-60.61-3.58-14.18-9.44-22.67-17.9-25.37-8.44-2.69-17.88.76-28.2,10.79-10.29,10.04-19.73,31.64-26.9,65.56-7.38,35.03-13.62,70.94-18.67,107.71,22.93,3.87,45.85,7.75,68.78,11.62Z" fill="#f21197"/>
      <path d="M929.75,771.64c55.61,65.61,111.22,131.23,166.83,196.84,31.58,37.51,36.04,78.44,18.11,123.66-17.94,45.54-49.99,92.31-94.24,147.2-46.5,57.93-87.15,103.65-128.33,134.8-40.93,31.11-81.1,39.08-122.36,17.67-77.92-40.7-155.85-81.4-233.77-122.1,36.96-76.4,79.46-147.73,126.76-213.99,67.45,49.36,134.89,98.72,202.34,148.08,15.09,11.03,29.92,13.61,44.5,8.29,14.63-5.32,30.34-19.14,48.17-40.83,14.9-18.1,25.19-34.42,30.64-49.66,5.47-15.22,6.58-26.52,2.91-34.03-3.66-7.5-13.7-19.07-30.19-34.66-55.37-52.31-110.74-104.62-166.11-156.93,42.53-44.47,87.55-85.91,134.72-124.33Z" fill="#f21197"/>
      <path d="M1542.67,464.83c-55.24,91-98.67,184.37-130.34,278.05,22.57,49.61,45.15,99.22,67.72,148.83-52.82,21.96-104.11,47.47-153.39,76.53-29.23-46.29-58.47-92.58-87.7-138.87-102.51-26.24-212.04-41.6-326.19-43.7,64.87-54.43,133.97-103,206.41-145.72,60.44,13.63,118.86,30.57,174.95,50.45,15.29-54.42,34.18-108.91,56.7-163.11,62.57-24.57,126.67-45.39,191.84-62.47Z" fill="#f21197"/>
      <path d="M2343.19,438.92c-26.94,125.22-53.87,250.45-80.81,375.67-53.81-10.36-108.3-17.48-163.05-21.38,7.29-91.11,14.58-182.21,21.87-273.32-50.58,88.02-93.46,178.26-128.5,269.81-37.53.2-75.05,1.9-112.42,5.11-45.6-87.82-99.19-173.49-160.47-256.02,16.85,89.97,33.71,179.94,50.56,269.91-43.72,7.32-87.04,16.75-129.75,28.29-36.89-122.92-73.79-245.85-110.68-368.77,97.23-26.27,196.91-44.18,297.48-53.72,43.55,64.08,82.67,129.69,117.25,196.41,27.86-68.88,60.12-137.03,96.72-204.1,101.33,2.29,202.45,13,301.78,32.12Z" fill="#f21197"/>
      <path d="M2550.89,911.43c-73.31-32.89-128.65-69.57-169.26-118.16-40.43-48.29-57.45-100.3-43.47-158.84,13.3-55.64,52.78-96.52,123.57-116.2,70.31-19.47,163.05-10.46,266.74,36.23,95.82,43.32,161.02,103.12,193.8,167.58,32.91,64.89,26.48,121.29-10.69,167.66-38.72,48.38-92.05,69.04-157.32,70.27-65.63,1.28-130.66-15.73-203.36-48.53ZM2588.91,831.9c28.96,13.03,53.36,15.6,74.53,6.83,21.06-8.78,43.48-32.94,66.68-73.16,33.83-57.77,21.58-103.59-39.62-131.57-66.33-29.67-115.09-5.81-143.32,64.72-26.72,66.63-12.04,109.24,41.73,133.18Z" fill="#f21197"/>
      <path d="M3134.01,1481.42c-29.12-65.17-63.4-125.73-102.09-181.69,23.76-52.97,44.72-107.93,62.68-164.57-13.41-16.45-27.19-32.49-41.32-48.12-36.96,33.24-73.91,66.48-110.87,99.72-40.25-44.51-83.67-85.29-129.73-122.31,83.43-99.57,166.86-199.14,250.29-298.72,102.55,82.45,195.11,179.08,274.23,289.9,52.39,73.5,78.56,142.31,83.25,197.34,4.61,55.34-10.64,90.55-41.44,105.51-20.15,9.87-41.54,10.41-64.14,2.8-22.68-7.6-50.7-31.3-86.35-67.39-27.67,65.5-59.32,128.19-94.5,187.53ZM3115.04,1031.49c20.34,22.49,39.99,45.79,58.91,69.89,16.68,21.26,32.05,37.02,46.82,46.94,14.73,9.92,27.06,11.66,37.13,4.61,20.51-14.12,14.95-46.28-20.52-92.32-21.29-27.44-43.48-53.88-66.51-79.35-18.61,16.74-37.22,33.48-55.83,50.21Z" fill="#f21197"/>
      <path d="M3336.21,2034.37c-30.51,0-61.01,0-91.52,0,0-193.35-33.79-364.17-93.49-512.47,118.18-52.61,236.37-105.22,354.55-157.83,78.09,193.97,122.29,417.4,122.29,670.3-29.46,0-58.92,0-88.38,0,0-143.41-15.03-276.81-42.99-400.19-17.96,4.8-35.93,9.61-53.89,14.41,21.82,96.3,35.47,198.93,39.88,307.89-28.39,1.49-56.77,2.98-85.16,4.47-4.15-102.7-17.02-199.44-37.59-290.2-20.33,5.44-40.67,10.87-61.01,16.31,24.26,107.07,37.31,222.84,37.31,347.31Z" fill="#f21197"/>
    </g>
    <g>
      <path d="M364.14,2082.44h392.51c0,105.32,10.17,203.87,29.21,295.63,25.05,119.05,38.34,204.05,26.32,275.18-11.71,70.44-36.07,120.04-81.48,146.19-51.34,29.49-111.02,24.11-175.7-29.53-64.09-53.64-119.16-145.88-148.5-279.45-27.56-126.15-42.34-262.16-42.34-408.02ZM477.76,2378.9c3.94,24.3,8.36,48.25,13.25,71.83,9.34,45.01,28.29,79.24,54.98,102.03,26.76,22.8,56.24,27.24,87.79,15.84,27.09-9.79,46.57-29.89,59.73-59.37,13.18-29.59,14.31-65.1,5.03-109.71-4.21-20.3-8.02-40.92-11.41-61.84-69.79,13.74-139.58,27.48-209.37,41.22Z" fill="#22cbd3"/>
      <path d="M791.82,3230.53c-80.83-82.7-123.84-172.85-132.46-254.35-8.58-82.12,19.08-138.33,72.8-169.11,51.75-29.86,108.61-26.26,171.35-.39,63.14,25.91,121.27,73.41,186,139.56,60.07,61.03,102.17,116.71,126.15,178.17,23.9,61.01,23.89,116.76-8.98,168.3-33.76,52.94-89.18,80.12-168.75,71.42-79.01-8.82-165.78-51.59-246.11-133.58ZM856.6,3166.55c28.18,28.82,55.77,41.9,80.77,40.31,25.09-1.57,53.4-20.63,85.31-56.18,46.01-51.98,45.21-96.92,2.06-140.47-46.15-47.35-97.12-49.23-158.46.96-57.14,46.61-62.41,100.83-9.67,155.39Z" fill="#22cbd3"/>
      <path d="M1682.32,3578.65c-6.35,31.56-12.71,63.13-19.06,94.69-185.3-33.35-364.77-96-528.18-187.94,68.55-113.35,137.1-226.7,205.65-340.05,54.3,30.55,110.94,56.83,169.27,78.84-38.1,91.86-76.2,183.72-114.29,275.57,92.68,34.98,188.79,61.27,286.62,78.88Z" fill="#22cbd3"/>
      <path d="M2237.01,3586.54c5.35,31.73,10.69,63.46,16.04,95.19-186.28,28.02-377.45,26.75-563.28-3.82,23.73-128.9,47.47-257.81,71.2-386.71,61.75,10.16,124.28,16.04,186.93,17.66-2.87,98.67-5.73,197.34-8.6,296.01,99.55,2.57,199.35-3.54,297.71-18.34Z" fill="#22cbd3"/>
      <path d="M2703.16,3550.41c-25.18-17.11-49.78-34.71-73.81-52.77-63.08,26.31-127.92,48.53-193.97,66.67-7.14,28.73-15.08,57.45-23.81,86.15-65.03,15.95-131.06,28.18-197.62,36.71,63.79-140.2,106.7-283.53,128.89-425.86,63.69-17.48,125.95-39.74,186.03-66.77,116.07,92.53,248.73,172.28,394.89,234.99-70.24,46.16-144.08,86.46-220.62,120.88ZM2447.02,3471.42c36.96-11.13,73.47-23.64,109.43-37.53-32.72-28.01-64.2-56.9-94.37-86.59-3.48,41.23-8.49,82.63-15.05,124.12Z" fill="#22cbd3"/>
      <path d="M3421.49,2879.53c-45.17,87.18-97.74,167.43-156.55,240.75-64.94-.37-128.69-4.96-190.85-13.42-16.44,17.3-33.29,34.1-50.54,50.39,35.37,36.56,70.75,73.11,106.12,109.67-60.51,57.16-125.4,108.69-193.8,154.58-76.94-108.19-153.88-216.37-230.83-324.56,88.22-59.19,168.73-130.75,238.28-214.68,45.95-55.55,85.62-97.21,125.58-122.1,39.74-24.89,74.54-31.45,105.48-14.26,20.08,11.17,34,28.61,40.9,52.78,6.83,24.08,3.04,63.44-15.35,115.87,72.87-5.24,147-16.71,221.57-35.02ZM2964.44,3096.14c22.11-20.89,43.54-42.66,64.23-65.31,18.25-19.99,29.94-38.87,35.39-55.72,5.45-16.87,2.98-29.28-6.85-37.09-20.35-16.04-46.16-2.66-80.91,36.1-20.97,23.23-42.77,45.49-65.31,66.79,17.81,18.41,35.62,36.82,53.44,55.22Z" fill="#22cbd3"/>
      <path d="M3307.63,2847.77c30.42-70.21,55.59-144.05,75.08-221.33,36.13-7.14,69.15-51.44,89.52-138.22,15.43-67.78,12.35-105.39-3.29-108.26-8.3-1.66-16.02,5.09-23.44,19.77-7.45,14.66-16.64,41.6-29.19,79.26-48.18,143.63-102.13,216.36-136.67,242.26-35.34,25.48-66.2,29.23-91.79,15.33-33.12-18.13-48.51-55.31-51.52-110.9-3.22-56.01,10.35-124.76,32.29-218.04,32.49-141.37,66.66-245.12,132.44-301.38,9.06,73.71,13.43,145.96,13.22,216.55-29.37,16.91-48.61,56.34-62.91,116.37-12.09,49.71-12.16,75.86,3.48,81.43,6.94,2.39,14.02-1.25,21.11-11.25,7.06-10.01,16.99-30.72,28.42-63.54,31.23-90.51,47.69-162.21,59.33-205.04,11.52-42.94,26.28-79.95,45.58-110.79,19.26-30.83,40.88-47.57,66.04-47.57,39.39-.35,72.9,41.96,92.56,127.52,19.34,85,19.54,196.44-10.22,319.47-27.34,112.34-68.64,192.17-112.7,243.7-44.36,51.56-91.48,74.81-137.34,74.64Z" fill="#22cbd3"/>
    </g>
  </g>
</svg>